<svg width="455" height="430" viewBox="0 0 455 430" fill="none" xmlns="http://www.w3.org/2000/svg" role="img" aria-labelledby="title desc">
  <title id="title">Quillion brand mark</title>
  <desc id="desc">A cyan quill forming a stylized Q.</desc>
  <defs>
    <linearGradient id="q-ring" x1="70" y1="340" x2="385" y2="70" gradientUnits="userSpaceOnUse">
      <stop stop-color="#00527A"/>
      <stop offset="0.38" stop-color="#00BFE8"/>
      <stop offset="1" stop-color="#35FFF5"/>
    </linearGradient>
    <linearGradient id="q-tail" x1="120" y1="345" x2="410" y2="335" gradientUnits="userSpaceOnUse">
      <stop stop-color="#00679C"/>
      <stop offset="0.48" stop-color="#21D9F4"/>
      <stop offset="1" stop-color="#76FFF4"/>
    </linearGradient>
    <linearGradient id="feather" x1="115" y1="360" x2="290" y2="45" gradientUnits="userSpaceOnUse">
      <stop stop-color="#00A3E0"/>
      <stop offset="0.45" stop-color="#13E4F8"/>
      <stop offset="1" stop-color="#9DFFF6"/>
    </linearGradient>
    <filter id="soft-shadow" x="20" y="10" width="410" height="410" color-interpolation-filters="sRGB" filterUnits="userSpaceOnUse">
      <feDropShadow dx="0" dy="18" stdDeviation="18" flood-color="#003C5C" flood-opacity="0.32"/>
    </filter>
  </defs>
  <g filter="url(#soft-shadow)">
    <path d="M349 310C387 272 402 216 386 164C364 93 288 52 218 74C148 95 108 170 130 241" stroke="url(#q-ring)" stroke-width="50" stroke-linecap="round"/>
    <path d="M126 326C205 289 286 300 401 342C289 414 198 406 126 326Z" fill="url(#q-tail)"/>
    <path d="M86 383C116 290 149 213 207 142C251 88 302 56 371 42C315 96 272 151 239 211C203 277 154 332 86 383Z" fill="url(#feather)"/>
    <path d="M92 382C141 286 196 195 292 86" stroke="#00669C" stroke-width="10" stroke-linecap="round"/>
    <path d="M126 317L84 391L104 371L132 379L147 340L126 317Z" fill="#1BDCF4"/>
    <path d="M145 259L220 237" stroke="#00669C" stroke-width="8" stroke-linecap="round"/>
    <path d="M172 206L257 181" stroke="#00669C" stroke-width="8" stroke-linecap="round"/>
    <path d="M205 151L298 123" stroke="#00669C" stroke-width="8" stroke-linecap="round"/>
    <path d="M58 328L66 350L88 358L66 366L58 388L50 366L28 358L50 350L58 328Z" fill="#42F5FF"/>
  </g>
</svg>
